<?xml version="1.0" standalone="no"?>
<!DOCTYPE svg PUBLIC "-//W3C//DTD SVG 20010904//EN"
        "http://www.w3.org/TR/2001/REC-SVG-20010904/DTD/svg10.dtd">
<svg version="1.0" xmlns="http://www.w3.org/2000/svg"
     width="1024.000000pt" height="1024.000000pt" viewBox="0 0 1024.000000 1024.000000"
     preserveAspectRatio="xMidYMid meet">
    <g transform="translate(0.000000,1024.000000) scale(0.100000,-0.100000)"
       stroke="none">

        <!-- Hauptform in Mnet-Blau -->
        <path fill="#008FD6" d="M3970 7466 c-71 -19 -105 -45 -249 -189 -89 -90 -131 -139 -126 -147
5 -8 4 -11 -2 -7 -6 4 -192 -176 -414 -398 -305 -306 -410 -417 -426 -453
l-23 -47 0 -1688 c0 -1503 2 -1692 16 -1725 19 -47 58 -88 109 -115 l40 -22
1989 -3 1989 -2 43 21 c26 12 53 36 66 57 l23 37 3 680 c2 374 0 709 -3 745
-6 55 -12 69 -40 97 -29 29 -40 33 -84 33 -60 0 -94 -19 -119 -64 -16 -28 -17
-89 -17 -686 l0 -655 -1864 -3 c-1369 -1 -1867 1 -1877 9 -12 10 -14 271 -14
1570 l0 1558 518 3 c482 3 520 4 546 21 56 37 56 40 56 607 l0 520 1303 0
c1251 0 1305 -1 1320 -18 15 -17 17 -76 17 -636 0 -551 2 -622 16 -652 21 -43
59 -64 118 -64 50 0 95 30 115 78 8 20 11 213 9 719 l-3 691 -30 44 c-17 23
-51 54 -75 68 l-45 25 -1420 2 c-1101 1 -1430 -1 -1465 -11z m-122 -779 c2
-182 -1 -337 -5 -344 -9 -12 -683 -27 -683 -14 0 4 682 692 685 691 0 0 1
-150 3 -333z"/>

        <!-- Haken in Schwarz -->
        <path fill="#000000
" d="M7190 5610 c-14 -6 -322 -308 -685 -670 l-660 -660 -210 211 c-116
116 -228 220 -249 231 -55 28 -141 22 -189 -15 -65 -49 -90 -154 -54 -223 22
-40 585 -598 624 -618 43 -22 116 -20 161 3 56 29 1477 1457 1497 1503 31 76
7 163 -60 214 -29 21 -50 29 -93 31 -32 1 -68 -2 -82 -7z"/>

        <!-- Weitere Pfade in Mnet-Blau -->
        <path fill="#008FD6" d="M3593 5559 c-36 -10 -80 -58 -90 -97 -10 -40 17 -103 56 -129 l35
-23 925 2 c891 3 927 4 954 22 57 39 73 114 37 173 -40 67 15 63 -982 62 -515
0 -917 -5 -935 -10z m1907 -183 c0 -2 -8 -10 -17 -17 -16 -13 -17 -12 -4 4 13
16 21 21 21 13z"/>
        <path fill="#008FD6" d="M3957 4830 l-389 -5 -28 -32 c-56 -62 -44 -152 24 -194 29 -18 60
-19 536 -19 483 0 506 1 537 20 36 22 63 66 63 105 0 39 -27 91 -58 112 -31
21 -53 21 -685 13z"/>
        <path fill="#008FD6" d="M3562 4080 c-34 -21 -62 -72 -62 -112 0 -37 34 -90 71 -110 31 -17
68 -18 527 -18 533 0 542 1 577 54 42 64 25 148 -38 186 -31 19 -54 20 -537
20 -489 0 -506 -1 -538 -20z m835 4 c-3 -3 -12 -4 -19 -1 -8 3 -5 6 6 6 11 1
17 -2 13 -5z"/>
    </g>
</svg>
